<svg xmlns="http://www.w3.org/2000/svg" version="1.1" xmlns:xlink="http://www.w3.org/1999/xlink" xmlns:svgjs="http://svgjs.dev/svgjs" width="1500" height="1500" viewBox="0 0 1500 1500"><rect width="1500" height="1500" fill="#ffffff"></rect><g transform="matrix(0.6666666666666666,0,0,0.6666666666666666,250,250)"><svg viewBox="0 0 280 280" data-background-color="#000000" preserveAspectRatio="xMidYMid meet" height="1500" width="1500" xmlns="http://www.w3.org/2000/svg" xmlns:xlink="http://www.w3.org/1999/xlink"><g id="tight-bounds" transform="matrix(1,0,0,1,0,0)"><svg viewBox="0 0 280 280" height="280" width="280"><g><svg viewBox="0 0 280 280" height="280" width="280"><g><svg viewBox="0 0 280 280" height="280" width="280"><g id="textblocktransform"><svg viewBox="0 0 280 280" height="280" width="280" id="textblock"><g><svg viewBox="0 0 280 280" height="280" width="280"><g transform="matrix(1,0,0,1,90.61771870615073,90.50252531694167)"><svg viewBox="0 0 98.76456258769855 98.99494936611666" height="98.99494936611666" width="98.76456258769855"><g id="icon-0"><svg xmlns="http://www.w3.org/2000/svg" xmlns:xlink="http://www.w3.org/1999/xlink" version="1.1" x="0" y="0" viewBox="20.567998691064325 20.523 58.73000130893565 58.86699999999999" enable-background="new 0 0 100 100" xml:space="preserve" height="98.99494936611666" width="98.76456258769855" class="icon-xg-0" data-fill-palette-color="accent" id="xg-0"></svg></g></svg></g><g id="text-0"></g><g id="text-1"></g></svg></g></svg></g></svg></g><g></g></svg></g><defs></defs><mask id="bf54b506-204d-43e1-9af4-c83ba23add98"><g id="SvgjsG5839"><svg viewBox="0 0 280 280" height="280" width="280"><g><svg viewBox="0 0 280 280" height="280" width="280"><g><svg viewBox="0 0 280 280" height="280" width="280"><g id="SvgjsG5838"><svg viewBox="0 0 280 280" height="280" width="280" id="SvgjsSvg5837"><g><svg viewBox="0 0 280 280" height="280" width="280"><g transform="matrix(1,0,0,1,90.61771870615073,90.50252531694167)"><svg viewBox="0 0 98.76456258769855 98.99494936611666" height="98.99494936611666" width="98.76456258769855"><g id="SvgjsG5836"><svg xmlns="http://www.w3.org/2000/svg" xmlns:xlink="http://www.w3.org/1999/xlink" version="1.1" x="0" y="0" viewBox="20.567998691064325 20.523 58.73000130893565 58.86699999999999" enable-background="new 0 0 100 100" xml:space="preserve" height="98.99494936611666" width="98.76456258769855" class="icon-xg-0" data-fill-palette-color="accent" id="SvgjsSvg5835"><g fill="black"><path d="M42.535 31.253c-6.226 0-14.969 7.566-14.969 11.273s8.743 11.273 14.969 11.273 15.031-7.527 15.031-11.273C57.566 38.78 48.762 31.253 42.535 31.253zM42.566 50.026c-4.142 0-7.5-3.358-7.5-7.5s3.358-7.5 7.5-7.5 7.5 3.358 7.5 7.5S46.708 50.026 42.566 50.026z" fill="black"></path></g><circle cx="42.566" cy="42.526" r="2.5" fill="black"></circle><g fill="black"><path d="M59.848 56.107c3.051-3.863 4.721-8.592 4.719-13.58 0-12.131-9.869-22.002-22.001-22.004-5.868 0-11.392 2.291-15.551 6.451-4.159 4.16-6.449 9.683-6.447 15.55-0.002 5.868 2.288 11.392 6.447 15.552 4.159 4.159 9.68 6.45 15.55 6.45h0.001 0.008c4.922 0 9.589-1.631 13.424-4.606l19.468 19.47 3.832-3.832L59.848 56.107zM55.289 55.249c-3.402 3.403-7.919 5.278-12.717 5.278h-0.011H42.56c-4.798 0-9.314-1.875-12.718-5.278-3.404-3.404-5.277-7.923-5.276-12.724-0.001-4.8 1.872-9.317 5.276-12.722 3.403-3.404 7.922-5.279 12.722-5.279 9.926 0.002 18.002 8.078 18.002 18.004C60.566 47.327 58.691 51.845 55.289 55.249z" fill="black"></path></g></svg></g></svg></g><g id="SvgjsG5834"><path d="M106.08 28.29l-22.813 9.685-2.43-5.722 2.649-1.125-6.347-14.951-2.649 1.124-2.43-5.722 14.914-6.332 2.429 5.723-3.638 1.545 6.383 15.036 5.402-2.293-1.966-6.465 5.478-2.325z" fill="white"></path><path d="M199.344 39.151l-22.772-9.784 2.454-5.712 2.644 1.136 6.413-14.923-2.644-1.137 2.454-5.711 14.886 6.396-2.454 5.712-3.632-1.561-6.449 15.008 5.392 2.317 3.311-5.89 5.467 2.349z" fill="white"></path><path d="M98.534 276.98l-22.813-9.685 2.429-5.722 2.649 1.124 6.348-14.951-2.649-1.125 2.429-5.722 14.914 6.331-2.43 5.723-3.639-1.545-6.383 15.036 5.402 2.293 3.285-5.904 5.477 2.326z" fill="white"></path><path d="M206.967 266.086l-22.772 9.784-2.454-5.712 2.644-1.136-6.412-14.924-2.644 1.136-2.455-5.711 14.887-6.396 2.454 5.711-3.632 1.561 6.448 15.008 5.392-2.316-1.993-6.456 5.467-2.349z" fill="white"></path><path d="M0 143.748c0-6.05 4.904-10.954 10.954-10.955 6.05 0 10.954 4.904 10.955 10.955 0 6.05-4.904 10.954-10.955 10.954-6.05 0-10.954-4.904-10.954-10.954z" fill="white"></path><path d="M258.091 143.748c0-6.05 4.904-10.954 10.955-10.955 6.05 0 10.954 4.904 10.954 10.955 0 6.05-4.904 10.954-10.954 10.954-6.05 0-10.954-4.904-10.955-10.954z" fill="white"></path></g><g id="SvgjsG5833"></g></svg></g></svg></g></svg></g><g></g></svg></g><defs><mask></mask></defs></svg><rect width="280" height="280" fill="black" stroke="none" visibility="hidden"></rect></g></mask><linearGradient x1="0" x2="1" y1="0.578" y2="0.595" id="6352c9aa-3e65-49dc-b532-b2c975457272"><stop stop-color="#6ee2f5" offset="0"></stop><stop stop-color="#6454f0" offset="1"></stop></linearGradient><rect width="280" height="280" fill="#000000" mask="url(#bf54b506-204d-43e1-9af4-c83ba23add98)" data-fill-palette-color="primary"></rect><mask id="3d048c5b-2d2a-4fb3-b3fe-61acaf56ee00"><g id="SvgjsG5868"><svg viewBox="0 0 280 280" height="280" width="280"><g><svg viewBox="0 0 280 280" height="280" width="280"><g><svg viewBox="0 0 280 280" height="280" width="280"><g id="SvgjsG5867"><svg viewBox="0 0 280 280" height="280" width="280" id="SvgjsSvg5866"><g><svg viewBox="0 0 280 280" height="280" width="280"><g transform="matrix(1,0,0,1,90.61771870615073,90.50252531694167)"><svg viewBox="0 0 98.76456258769855 98.99494936611666" height="98.99494936611666" width="98.76456258769855"><g id="SvgjsG5865"><svg xmlns="http://www.w3.org/2000/svg" xmlns:xlink="http://www.w3.org/1999/xlink" version="1.1" x="0" y="0" viewBox="20.567998691064325 20.523 58.73000130893565 58.86699999999999" enable-background="new 0 0 100 100" xml:space="preserve" height="98.99494936611666" width="98.76456258769855" class="icon-xg-0" data-fill-palette-color="accent" id="SvgjsSvg5864"><g fill="white"><path d="M42.535 31.253c-6.226 0-14.969 7.566-14.969 11.273s8.743 11.273 14.969 11.273 15.031-7.527 15.031-11.273C57.566 38.78 48.762 31.253 42.535 31.253zM42.566 50.026c-4.142 0-7.5-3.358-7.5-7.5s3.358-7.5 7.5-7.5 7.5 3.358 7.5 7.5S46.708 50.026 42.566 50.026z" fill="white"></path></g><circle cx="42.566" cy="42.526" r="2.5" fill="white"></circle><g fill="white"><path d="M59.848 56.107c3.051-3.863 4.721-8.592 4.719-13.58 0-12.131-9.869-22.002-22.001-22.004-5.868 0-11.392 2.291-15.551 6.451-4.159 4.16-6.449 9.683-6.447 15.55-0.002 5.868 2.288 11.392 6.447 15.552 4.159 4.159 9.68 6.45 15.55 6.45h0.001 0.008c4.922 0 9.589-1.631 13.424-4.606l19.468 19.47 3.832-3.832L59.848 56.107zM55.289 55.249c-3.402 3.403-7.919 5.278-12.717 5.278h-0.011H42.56c-4.798 0-9.314-1.875-12.718-5.278-3.404-3.404-5.277-7.923-5.276-12.724-0.001-4.8 1.872-9.317 5.276-12.722 3.403-3.404 7.922-5.279 12.722-5.279 9.926 0.002 18.002 8.078 18.002 18.004C60.566 47.327 58.691 51.845 55.289 55.249z" fill="white"></path></g></svg></g></svg></g><g id="SvgjsG5863"></g><g id="SvgjsG5862"></g></svg></g></svg></g></svg></g><g></g></svg></g><defs><mask></mask></defs><mask><g id="SvgjsG5861"><svg viewBox="0 0 280 280" height="280" width="280"><g><svg viewBox="0 0 280 280" height="280" width="280"><g><svg viewBox="0 0 280 280" height="280" width="280"><g id="SvgjsG5860"><svg viewBox="0 0 280 280" height="280" width="280" id="SvgjsSvg5859"><g><svg viewBox="0 0 280 280" height="280" width="280"><g transform="matrix(1,0,0,1,90.61771870615073,90.50252531694167)"><svg viewBox="0 0 98.76456258769855 98.99494936611666" height="98.99494936611666" width="98.76456258769855"><g id="SvgjsG5858"><svg xmlns="http://www.w3.org/2000/svg" xmlns:xlink="http://www.w3.org/1999/xlink" version="1.1" x="0" y="0" viewBox="20.567998691064325 20.523 58.73000130893565 58.86699999999999" enable-background="new 0 0 100 100" xml:space="preserve" height="98.99494936611666" width="98.76456258769855" class="icon-xg-0" data-fill-palette-color="accent" id="SvgjsSvg5857"><g fill="black"><path d="M42.535 31.253c-6.226 0-14.969 7.566-14.969 11.273s8.743 11.273 14.969 11.273 15.031-7.527 15.031-11.273C57.566 38.78 48.762 31.253 42.535 31.253zM42.566 50.026c-4.142 0-7.5-3.358-7.5-7.5s3.358-7.5 7.5-7.5 7.5 3.358 7.5 7.5S46.708 50.026 42.566 50.026z" fill="black"></path></g><circle cx="42.566" cy="42.526" r="2.5" fill="black"></circle><g fill="black"><path d="M59.848 56.107c3.051-3.863 4.721-8.592 4.719-13.58 0-12.131-9.869-22.002-22.001-22.004-5.868 0-11.392 2.291-15.551 6.451-4.159 4.16-6.449 9.683-6.447 15.55-0.002 5.868 2.288 11.392 6.447 15.552 4.159 4.159 9.68 6.45 15.55 6.45h0.001 0.008c4.922 0 9.589-1.631 13.424-4.606l19.468 19.47 3.832-3.832L59.848 56.107zM55.289 55.249c-3.402 3.403-7.919 5.278-12.717 5.278h-0.011H42.56c-4.798 0-9.314-1.875-12.718-5.278-3.404-3.404-5.277-7.923-5.276-12.724-0.001-4.8 1.872-9.317 5.276-12.722 3.403-3.404 7.922-5.279 12.722-5.279 9.926 0.002 18.002 8.078 18.002 18.004C60.566 47.327 58.691 51.845 55.289 55.249z" fill="black"></path></g></svg></g></svg></g><g id="SvgjsG5856"><path d="M106.08 28.29l-22.813 9.685-2.43-5.722 2.649-1.125-6.347-14.951-2.649 1.124-2.43-5.722 14.914-6.332 2.429 5.723-3.638 1.545 6.383 15.036 5.402-2.293-1.966-6.465 5.478-2.325z" fill="black"></path><path d="M199.344 39.151l-22.772-9.784 2.454-5.712 2.644 1.136 6.413-14.923-2.644-1.137 2.454-5.711 14.886 6.396-2.454 5.712-3.632-1.561-6.449 15.008 5.392 2.317 3.311-5.89 5.467 2.349z" fill="black"></path><path d="M98.534 276.98l-22.813-9.685 2.429-5.722 2.649 1.124 6.348-14.951-2.649-1.125 2.429-5.722 14.914 6.331-2.43 5.723-3.639-1.545-6.383 15.036 5.402 2.293 3.285-5.904 5.477 2.326z" fill="black"></path><path d="M206.967 266.086l-22.772 9.784-2.454-5.712 2.644-1.136-6.412-14.924-2.644 1.136-2.455-5.711 14.887-6.396 2.454 5.711-3.632 1.561 6.448 15.008 5.392-2.316-1.993-6.456 5.467-2.349z" fill="black"></path><path d="M0 143.748c0-6.05 4.904-10.954 10.954-10.955 6.05 0 10.954 4.904 10.955 10.955 0 6.05-4.904 10.954-10.955 10.954-6.05 0-10.954-4.904-10.954-10.954z" fill="black"></path><path d="M258.091 143.748c0-6.05 4.904-10.954 10.955-10.955 6.05 0 10.954 4.904 10.954 10.955 0 6.05-4.904 10.954-10.954 10.954-6.05 0-10.954-4.904-10.955-10.954z" fill="black"></path></g><g id="SvgjsG5855"></g></svg></g></svg></g></svg></g><g></g></svg></g><defs><mask></mask></defs></svg><rect width="280" height="280" fill="black" stroke="none" visibility="hidden"></rect></g></mask></svg><rect width="280" height="280" fill="black" stroke="none" visibility="hidden"></rect></g></mask><linearGradient x1="0" x2="1" y1="0.578" y2="0.595" id="04f4bb74-8f6a-4732-823d-c3e5c8bd7858"><stop stop-color="#6ee2f5" offset="0"></stop><stop stop-color="#6454f0" offset="1"></stop></linearGradient><rect width="280" height="280" fill="#000000" mask="url(#3d048c5b-2d2a-4fb3-b3fe-61acaf56ee00)" data-fill-palette-color="accent"></rect></svg><rect width="280" height="280" fill="none" stroke="none" visibility="hidden"></rect></g></svg></g></svg>